<?xml version="1.0" encoding="utf-8"?>
<!-- Generator: Adobe Illustrator 19.2.1, SVG Export Plug-In . SVG Version: 6.00 Build 0)  -->
<svg version="1.1" xmlns="http://www.w3.org/2000/svg" xmlns:xlink="http://www.w3.org/1999/xlink" x="0px" y="0px"
	 viewBox="0 0 100 100" style="enable-background:new 0 0 100 100;" xml:space="preserve">
<style type="text/css">
	.st0{fill:none;stroke:#131313;stroke-width:2;stroke-miterlimit:10;}
	.st1{fill:#131313;}
	.st2{opacity:0.55;fill:#EFEBE3;}
	.st3{fill:#EFEBE3;}
	.st4{fill:#CCCCCC;}
	.st5{fill:none;stroke:#EFEBE3;stroke-miterlimit:10;}
	.st6{fill:#808080;}
	.st7{fill:#E6E6E6;}
	.st8{fill:#999999;}
	.st9{fill:#FFFFFF;}
	.st10{fill:#EBEBEB;}
	.st11{fill:url(#SVGID_1_);}
	.st12{fill:url(#SVGID_2_);}
	.st13{fill:url(#SVGID_3_);}
	.st14{opacity:5.000000e-002;}
	.st15{fill:#231F20;}
	.st16{fill:url(#SVGID_4_);}
	.st17{opacity:5.000000e-002;fill:#231F20;}
	.st18{fill:none;}
	.st19{fill:#B3B3B3;}
	.st20{fill-rule:evenodd;clip-rule:evenodd;fill:#CCCCCC;}
	.st21{fill-rule:evenodd;clip-rule:evenodd;fill:#999999;}
	.st22{fill:#4D4D4D;}
	.st23{fill:#1A1A1A;}
	.st24{fill:#333333;}
	.st25{clip-path:url(#SVGID_6_);fill:#666666;}
	.st26{clip-path:url(#SVGID_6_);fill:#808080;}
	.st27{clip-path:url(#SVGID_6_);fill:#4D4D4D;}
	.st28{clip-path:url(#SVGID_6_);fill:#333333;}
	.st29{clip-path:url(#SVGID_6_);fill:#999999;}
	.st30{clip-path:url(#SVGID_6_);fill:#B3B3B3;}
</style>
<g id="Capa_1">
	<g>
		<g>
			<path class="st0" d="M50,96.3C24.5,96.3,3.7,75.5,3.7,50C3.7,24.5,24.5,3.7,50,3.7S96.3,24.5,96.3,50
				C96.3,75.5,75.5,96.3,50,96.3z"/>
			<circle class="st1" cx="50" cy="50" r="39.7"/>
		</g>
		<path class="st2" d="M69.8,76C66.4,77.8,68.8,76.6,69.8,76L69.8,76z"/>
		<path class="st2" d="M23.8,85.7C24.7,83.1,22.5,86,23.8,85.7L23.8,85.7z"/>
		<path class="st2" d="M35.5,85C32.9,85.3,35,86.1,35.5,85L35.5,85z"/>
		<path class="st3" d="M69.8,83.3C69.6,82.9,69.8,83.4,69.8,83.3L69.8,83.3z"/>
		<path class="st2" d="M37.2,82.8C37.4,79.9,36.3,84.6,37.2,82.8L37.2,82.8z"/>
		<path class="st3" d="M24.7,77.8C24.7,76.1,22.8,78.8,24.7,77.8L24.7,77.8z"/>
		<path class="st3" d="M80.4,72.3C81.3,72.5,80.9,69.8,80.4,72.3L80.4,72.3z"/>
		<path class="st3" d="M54.4,67.2C51.7,68.4,53.7,69.4,54.4,67.2L54.4,67.2z"/>
		<path class="st3" d="M94.1,67.2C91,67.5,94.1,68.5,94.1,67.2L94.1,67.2z"/>
		<path class="st2" d="M45.3,64.8C41.6,64,45.3,68.9,45.3,64.8L45.3,64.8z"/>
		<path class="st3" d="M48.3,61.7C47.9,63.4,48.5,61.6,48.3,61.7L48.3,61.7z"/>
		<path class="st2" d="M50.5,61.7C48.4,61.5,50.5,63.2,50.5,61.7L50.5,61.7z"/>
		<path class="st2" d="M62.7,62c0.4,0,0.5-1.2-0.2-0.9C62.6,61.4,62.2,62.1,62.7,62z"/>
		<path class="st3" d="M53.9,61.7C53.6,60.2,51.7,64.5,53.9,61.7L53.9,61.7z"/>
		<path class="st2" d="M77.4,58.6C81.3,57.4,77.4,58.3,77.4,58.6L77.4,58.6z"/>
		<path class="st2" d="M40.9,58.2C39.4,58.1,39.7,60,40.9,58.2L40.9,58.2z"/>
		<path class="st3" d="M40.7,57.5C40.7,58.6,43.8,58.2,40.7,57.5L40.7,57.5z"/>
		<path class="st2" d="M73.7,57.6C75,57.6,73.7,55.4,73.7,57.6L73.7,57.6z"/>
		<path class="st3" d="M21.8,52.5C21.8,52.1,18.4,50.2,21.8,52.5L21.8,52.5z"/>
		<path class="st2" d="M14.5,51.2C14.9,49.8,12.1,52,14.5,51.2L14.5,51.2z"/>
		<path class="st3" d="M16.9,41.7C18.9,41.7,16.7,40.1,16.9,41.7L16.9,41.7z"/>
		<path class="st2" d="M30.1,30.1C28.9,26.6,29.4,32.5,30.1,30.1L30.1,30.1z"/>
		<path class="st3" d="M13.7,24.8C9.9,26,15.4,24.8,13.7,24.8L13.7,24.8z"/>
		<path class="st3" d="M85,22.6C85,21.7,84.5,18.1,85,22.6L85,22.6z"/>
		<path class="st2" d="M36,23.1C33.5,23.8,36,23.4,36,23.1L36,23.1z"/>
		<path class="st3" d="M81.8,22.9C84.5,23.2,80.1,20.9,81.8,22.9L81.8,22.9z"/>
		<path class="st3" d="M13.5,21.3C14.9,21.2,12.1,21.1,13.5,21.3L13.5,21.3z"/>
		<path class="st2" d="M49.2,17.6C44.7,18.4,52.6,17.6,49.2,17.6L49.2,17.6z"/>
		<path class="st2" d="M54.9,18.5C55.6,20,57.2,18.5,54.9,18.5L54.9,18.5z"/>
		<path class="st2" d="M77.4,85.4C77,85.3,79,85.7,77.4,85.4L77.4,85.4z"/>
		<path class="st2" d="M27,80.6C27,80,23.9,80.1,27,80.6L27,80.6z"/>
		<path class="st2" d="M21.1,75.8C19,75.8,21.1,76.8,21.1,75.8L21.1,75.8z"/>
		<path class="st2" d="M53.2,74.3C52.9,73.6,53.2,74.5,53.2,74.3L53.2,74.3z"/>
		<path class="st3" d="M55.9,72.5C56.1,71,53.5,72.7,55.9,72.5L55.9,72.5z"/>
		<path class="st2" d="M31.8,71.6C31.4,70.1,31,71.7,31.8,71.6L31.8,71.6z"/>
		<path class="st2" d="M17.9,69.9C17.8,69.6,18.1,71,17.9,69.9L17.9,69.9z"/>
		<path class="st2" d="M18.6,68.3C17,68.3,18.9,69.7,18.6,68.3L18.6,68.3z"/>
		<path class="st2" d="M38,61.3C38.5,60,34.2,61.3,38,61.3L38,61.3z"/>
		<path class="st2" d="M80.1,58.4C83,60,79.8,55,80.1,58.4L80.1,58.4z"/>
		<path class="st2" d="M61,56.5C60.2,55.7,59.7,55.5,61,56.5L61,56.5z"/>
		<path class="st3" d="M54.1,52.9C54.1,51.7,50.4,54.6,54.1,52.9L54.1,52.9z"/>
		<path class="st3" d="M75.2,50.1C75.6,48.5,72.9,50.1,75.2,50.1L75.2,50.1z"/>
		<path class="st2" d="M88,47.4c0.7-0.1,1.2-0.2,1.5-0.5c0-0.5,0-0.8,0.1-0.1C91.3,45.5,88,42.4,88,47.4z"/>
		<path class="st3" d="M24.9,66.6c-0.4-0.4-0.6-0.6-0.7-0.7c0,0,0,0,0,0C24.3,66.1,24.6,66.4,24.9,66.6z"/>
		<path class="st2" d="M23.5,63.9c-0.3,1.9,0.2,2.2,0.6,2c-0.1-0.2-0.2-0.2,0,0C24.7,65.5,25,64.3,23.5,63.9z"/>
		<path class="st3" d="M24.2,65.9C24.2,65.9,24.2,65.9,24.2,65.9C24,65.7,24,65.7,24.2,65.9z"/>
		<path class="st2" d="M24.2,65.9C24.2,65.9,24.2,65.9,24.2,65.9C24,65.7,24,65.7,24.2,65.9z"/>
		<path class="st2" d="M23.3,71C21.4,68.7,22.2,70.2,23.3,71L23.3,71z"/>
		<path class="st3" d="M22.1,18.2C22.3,17.5,20.4,17.6,22.1,18.2L22.1,18.2z"/>
		<path class="st2" d="M4.2,56.3C4.8,59,5.1,56.3,4.2,56.3L4.2,56.3z"/>
		<path class="st2" d="M7.8,38C9.7,38.5,8.4,37.1,7.8,38L7.8,38z"/>
		<path class="st3" d="M14.1,39.7c0.3-0.4,0-1-0.3-1.2C13.4,39,13.8,39.5,14.1,39.7z"/>
		<path class="st3" d="M12.4,38.5C13.1,39.1,15.5,37.6,12.4,38.5L12.4,38.5z"/>
		<path class="st2" d="M13.6,60.2C15.8,67.1,13.6,55.7,13.6,60.2L13.6,60.2z"/>
		<path class="st3" d="M25.8,38.7C22.9,38,27,41.2,25.8,38.7L25.8,38.7z"/>
		<path class="st2" d="M32.1,55.3C35.2,55.3,32,55.3,32.1,55.3L32.1,55.3z"/>
		<path class="st3" d="M33.8,57.1C36.7,58.4,32.9,52.5,33.8,57.1L33.8,57.1z"/>
		<path class="st2" d="M34,9.9C33.3,11,36.2,11.4,34,9.9L34,9.9z"/>
		<path class="st3" d="M88,51.4C87.8,53.3,90.4,51,88,51.4L88,51.4z"/>
		<path class="st2" d="M52.4,20.1C52.5,20.3,54.6,19.9,52.4,20.1L52.4,20.1z"/>
		<path class="st3" d="M45,23.8C42.8,24.2,42.9,26.4,45,23.8L45,23.8z"/>
		<path class="st2" d="M46.4,44.1C46.6,42.3,45.7,40.2,46.4,44.1L46.4,44.1z"/>
		<path class="st3" d="M53.3,25.5C55.5,24.7,51.2,25.5,53.3,25.5L53.3,25.5z"/>
		<path class="st3" d="M53.3,85.9C53.2,89.8,56.1,85.5,53.3,85.9L53.3,85.9z"/>
		<path class="st2" d="M55.9,27.2C58.9,26.3,55,24.9,55.9,27.2L55.9,27.2z"/>
		<path class="st2" d="M58.5,47.3C59.8,47.3,58.5,45,58.5,47.3L58.5,47.3z"/>
		<path class="st3" d="M60.5,59C60.9,57,60.2,56.2,60.5,59L60.5,59z"/>
		<path class="st3" d="M60.3,90.8C62.1,90.6,60.5,88.8,60.3,90.8L60.3,90.8z"/>
		<path class="st3" d="M60.1,22.6C63.7,22.2,58.8,19.2,60.1,22.6L60.1,22.6z"/>
		<path class="st2" d="M61,28.2C60.7,25.7,60.7,28,61,28.2L61,28.2z"/>
		<path class="st2" d="M64.5,17.7C64.1,20.2,65.9,17.7,64.5,17.7L64.5,17.7z"/>
		<path class="st2" d="M76.1,55.1C76.1,52.6,75,55.3,76.1,55.1L76.1,55.1z"/>
		<path class="st3" d="M77.2,86.6C78.9,86.3,77.1,84.7,77.2,86.6L77.2,86.6z"/>
		<path class="st3" d="M77.4,60.7C79,60.9,77.5,59.6,77.4,60.7L77.4,60.7z"/>
		<path class="st3" d="M84.9,45.8C84.9,45.7,82.5,45.1,84.9,45.8L84.9,45.8z"/>
		<path class="st3" d="M85.7,44.1C85.9,45.8,86.1,44.1,85.7,44.1L85.7,44.1z"/>
		<path class="st2" d="M89.7,48.3c-0.1-0.7-0.1-1.1-0.2-1.4c0,0-0.1,0-0.1,0.1C89.5,47.5,89.6,48.3,89.7,48.3z"/>
		<path class="st2" d="M89.4,46.9C89.5,46.9,89.5,46.9,89.4,46.9C89.4,46,89.4,46.4,89.4,46.9z"/>
		<path class="st2" d="M89.4,46.9C89.5,46.9,89.5,46.9,89.4,46.9C89.4,46,89.4,46.4,89.4,46.9z"/>
		<path class="st2" d="M14.3,36.8C15.2,36.8,14.3,33.4,14.3,36.8L14.3,36.8z"/>
		<path class="st2" d="M26.5,25.3C26.5,24.5,23.6,25,26.5,25.3L26.5,25.3z"/>
		<path class="st2" d="M28.9,60c-0.1,0.6,0.2,0.8,0.7,0.7C29.8,59.9,29.4,59.9,28.9,60z"/>
		<path class="st2" d="M33.6,76.6C31.8,76.3,33.6,76.7,33.6,76.6L33.6,76.6z"/>
		<path class="st2" d="M32.8,20.1C32.7,20.2,33.1,22.2,32.8,20.1L32.8,20.1z"/>
		<path class="st2" d="M37.6,49C37.9,48.9,37.6,47.1,37.6,49L37.6,49z"/>
		<path class="st3" d="M40.8,36.8C40.8,38.7,44.3,36.3,40.8,36.8L40.8,36.8z"/>
		<path class="st2" d="M46.5,62.7C48.5,62.6,46.3,62.3,46.5,62.7L46.5,62.7z"/>
		<path class="st3" d="M63.3,16.5C63.5,18.7,63.9,16.6,63.3,16.5L63.3,16.5z"/>
		<path class="st3" d="M69,50C69,51.3,70.7,50,69,50L69,50z"/>
		<path class="st2" d="M72.1,35.3C72.2,37.5,73.8,35,72.1,35.3L72.1,35.3z"/>
		<path class="st2" d="M77.7,76.4C77.9,76.4,78.5,72.5,77.7,76.4L77.7,76.4z"/>
		<path class="st3" d="M79.8,40.2C78.6,40,79.8,42.3,79.8,40.2L79.8,40.2z"/>
		<path class="st2" d="M69.8,76C66.4,77.8,68.8,76.6,69.8,76L69.8,76z"/>
		<path class="st2" d="M23.8,85.7C24.7,83.1,22.5,86,23.8,85.7L23.8,85.7z"/>
		<path class="st2" d="M35.5,85C32.9,85.3,35,86.1,35.5,85L35.5,85z"/>
		<path class="st3" d="M69.8,83.3C69.6,82.9,69.8,83.4,69.8,83.3L69.8,83.3z"/>
		<path class="st2" d="M37.2,82.8C37.4,79.9,36.3,84.6,37.2,82.8L37.2,82.8z"/>
		<path class="st3" d="M24.7,77.8C24.7,76.1,22.8,78.8,24.7,77.8L24.7,77.8z"/>
		<path class="st3" d="M80.4,72.3C81.3,72.5,80.9,69.8,80.4,72.3L80.4,72.3z"/>
		<path class="st3" d="M54.4,67.2C51.7,68.4,53.7,69.4,54.4,67.2L54.4,67.2z"/>
		<path class="st3" d="M94.1,67.2C91,67.5,94.1,68.5,94.1,67.2L94.1,67.2z"/>
		<path class="st2" d="M45.3,64.8C41.6,64,45.3,68.9,45.3,64.8L45.3,64.8z"/>
		<path class="st3" d="M48.3,61.7C47.9,63.4,48.5,61.6,48.3,61.7L48.3,61.7z"/>
		<path class="st2" d="M50.5,61.7C48.4,61.5,50.5,63.2,50.5,61.7L50.5,61.7z"/>
		<path class="st2" d="M62.7,62c0.4,0,0.5-1.2-0.2-0.9C62.6,61.4,62.2,62.1,62.7,62z"/>
		<path class="st3" d="M53.9,61.7C53.6,60.2,51.7,64.5,53.9,61.7L53.9,61.7z"/>
		<path class="st2" d="M77.4,58.6C81.3,57.4,77.4,58.3,77.4,58.6L77.4,58.6z"/>
		<path class="st2" d="M40.9,58.2C39.4,58.1,39.7,60,40.9,58.2L40.9,58.2z"/>
		<path class="st3" d="M40.7,57.5C40.7,58.6,43.8,58.2,40.7,57.5L40.7,57.5z"/>
		<path class="st2" d="M73.7,57.6C75,57.6,73.7,55.4,73.7,57.6L73.7,57.6z"/>
		<path class="st3" d="M21.8,52.5C21.8,52.1,18.4,50.2,21.8,52.5L21.8,52.5z"/>
		<path class="st2" d="M14.5,51.2C14.9,49.8,12.1,52,14.5,51.2L14.5,51.2z"/>
		<path class="st3" d="M16.9,41.7C18.9,41.7,16.7,40.1,16.9,41.7L16.9,41.7z"/>
		<path class="st2" d="M30.1,30.1C28.9,26.6,29.4,32.5,30.1,30.1L30.1,30.1z"/>
		<path class="st3" d="M13.7,24.8C9.9,26,15.4,24.8,13.7,24.8L13.7,24.8z"/>
		<path class="st3" d="M85,22.6C85,21.7,84.5,18.1,85,22.6L85,22.6z"/>
		<path class="st2" d="M36,23.1C33.5,23.8,36,23.4,36,23.1L36,23.1z"/>
		<path class="st3" d="M81.8,22.9C84.5,23.2,80.1,20.9,81.8,22.9L81.8,22.9z"/>
		<path class="st3" d="M13.5,21.3C14.9,21.2,12.1,21.1,13.5,21.3L13.5,21.3z"/>
		<path class="st2" d="M49.2,17.6C44.7,18.4,52.6,17.6,49.2,17.6L49.2,17.6z"/>
		<path class="st2" d="M54.9,18.5C55.6,20,57.2,18.5,54.9,18.5L54.9,18.5z"/>
		<path class="st2" d="M77.4,85.4C77,85.3,79,85.7,77.4,85.4L77.4,85.4z"/>
		<path class="st2" d="M27,80.6C27,80,23.9,80.1,27,80.6L27,80.6z"/>
		<path class="st2" d="M21.1,75.8C19,75.8,21.1,76.8,21.1,75.8L21.1,75.8z"/>
		<path class="st2" d="M53.2,74.3C52.9,73.6,53.2,74.5,53.2,74.3L53.2,74.3z"/>
		<path class="st3" d="M55.9,72.5C56.1,71,53.5,72.7,55.9,72.5L55.9,72.5z"/>
		<path class="st2" d="M31.8,71.6C31.4,70.1,31,71.7,31.8,71.6L31.8,71.6z"/>
		<path class="st2" d="M17.9,69.9C17.8,69.6,18.1,71,17.9,69.9L17.9,69.9z"/>
		<path class="st2" d="M18.6,68.3C17,68.3,18.9,69.7,18.6,68.3L18.6,68.3z"/>
		<path class="st2" d="M38,61.3C38.5,60,34.2,61.3,38,61.3L38,61.3z"/>
		<path class="st2" d="M80.1,58.4C83,60,79.8,55,80.1,58.4L80.1,58.4z"/>
		<path class="st2" d="M61,56.5C60.2,55.7,59.7,55.5,61,56.5L61,56.5z"/>
		<path class="st3" d="M54.1,52.9C54.1,51.7,50.4,54.6,54.1,52.9L54.1,52.9z"/>
		<path class="st3" d="M75.2,50.1C75.6,48.5,72.9,50.1,75.2,50.1L75.2,50.1z"/>
		<path class="st2" d="M88,47.4c0.7-0.1,1.2-0.2,1.5-0.5c0-0.5,0-0.8,0.1-0.1C91.3,45.5,88,42.4,88,47.4z"/>
		<path class="st3" d="M24.9,66.6c-0.4-0.4-0.6-0.6-0.7-0.7c0,0,0,0,0,0C24.3,66.1,24.6,66.4,24.9,66.6z"/>
		<path class="st2" d="M23.5,63.9c-0.3,1.9,0.2,2.2,0.6,2c-0.1-0.2-0.2-0.2,0,0C24.7,65.5,25,64.3,23.5,63.9z"/>
		<path class="st3" d="M24.2,65.9C24.2,65.9,24.2,65.9,24.2,65.9C24,65.7,24,65.7,24.2,65.9z"/>
		<path class="st2" d="M24.2,65.9C24.2,65.9,24.2,65.9,24.2,65.9C24,65.7,24,65.7,24.2,65.9z"/>
		<path class="st2" d="M23.3,71C21.4,68.7,22.2,70.2,23.3,71L23.3,71z"/>
		<path class="st3" d="M22.1,18.2C22.3,17.5,20.4,17.6,22.1,18.2L22.1,18.2z"/>
		<path class="st2" d="M4.2,56.3C4.8,59,5.1,56.3,4.2,56.3L4.2,56.3z"/>
		<path class="st2" d="M7.8,38C9.7,38.5,8.4,37.1,7.8,38L7.8,38z"/>
		<path class="st3" d="M14.1,39.7c0.3-0.4,0-1-0.3-1.2C13.4,39,13.8,39.5,14.1,39.7z"/>
		<path class="st3" d="M12.4,38.5C13.1,39.1,15.5,37.6,12.4,38.5L12.4,38.5z"/>
		<path class="st2" d="M13.6,60.2C15.8,67.1,13.6,55.7,13.6,60.2L13.6,60.2z"/>
		<path class="st3" d="M25.8,38.7C22.9,38,27,41.2,25.8,38.7L25.8,38.7z"/>
		<path class="st2" d="M32.1,55.3C35.2,55.3,32,55.3,32.1,55.3L32.1,55.3z"/>
		<path class="st3" d="M33.8,57.1C36.7,58.4,32.9,52.5,33.8,57.1L33.8,57.1z"/>
		<path class="st2" d="M34,9.9C33.3,11,36.2,11.4,34,9.9L34,9.9z"/>
		<path class="st3" d="M88,51.4C87.8,53.3,90.4,51,88,51.4L88,51.4z"/>
		<path class="st2" d="M52.4,20.1C52.5,20.3,54.6,19.9,52.4,20.1L52.4,20.1z"/>
		<path class="st3" d="M45,23.8C42.8,24.2,42.9,26.4,45,23.8L45,23.8z"/>
		<path class="st2" d="M46.4,44.1C46.6,42.3,45.7,40.2,46.4,44.1L46.4,44.1z"/>
		<path class="st3" d="M53.3,25.5C55.5,24.7,51.2,25.5,53.3,25.5L53.3,25.5z"/>
		<path class="st3" d="M53.3,85.9C53.2,89.8,56.1,85.5,53.3,85.9L53.3,85.9z"/>
		<path class="st2" d="M55.9,27.2C58.9,26.3,55,24.9,55.9,27.2L55.9,27.2z"/>
		<path class="st2" d="M58.5,47.3C59.8,47.3,58.5,45,58.5,47.3L58.5,47.3z"/>
		<path class="st3" d="M60.5,59C60.9,57,60.2,56.2,60.5,59L60.5,59z"/>
		<path class="st3" d="M60.3,90.8C62.1,90.6,60.5,88.8,60.3,90.8L60.3,90.8z"/>
		<path class="st3" d="M60.1,22.6C63.7,22.2,58.8,19.2,60.1,22.6L60.1,22.6z"/>
		<path class="st2" d="M61,28.2C60.7,25.7,60.7,28,61,28.2L61,28.2z"/>
		<path class="st2" d="M64.5,17.7C64.1,20.2,65.9,17.7,64.5,17.7L64.5,17.7z"/>
		<path class="st2" d="M76.1,55.1C76.1,52.6,75,55.3,76.1,55.1L76.1,55.1z"/>
		<path class="st3" d="M77.2,86.6C78.9,86.3,77.1,84.7,77.2,86.6L77.2,86.6z"/>
		<path class="st3" d="M77.4,60.7C79,60.9,77.5,59.6,77.4,60.7L77.4,60.7z"/>
		<path class="st3" d="M84.9,45.8C84.9,45.7,82.5,45.1,84.9,45.8L84.9,45.8z"/>
		<path class="st3" d="M85.7,44.1C85.9,45.8,86.1,44.1,85.7,44.1L85.7,44.1z"/>
		<path class="st2" d="M89.7,48.3c-0.1-0.7-0.1-1.1-0.2-1.4c0,0-0.1,0-0.1,0.1C89.5,47.5,89.6,48.3,89.7,48.3z"/>
		<path class="st2" d="M89.4,46.9C89.5,46.9,89.5,46.9,89.4,46.9C89.4,46,89.4,46.4,89.4,46.9z"/>
		<path class="st2" d="M89.4,46.9C89.5,46.9,89.5,46.9,89.4,46.9C89.4,46,89.4,46.4,89.4,46.9z"/>
		<path class="st2" d="M14.3,36.8C15.2,36.8,14.3,33.4,14.3,36.8L14.3,36.8z"/>
		<path class="st2" d="M26.5,25.3C26.5,24.5,23.6,25,26.5,25.3L26.5,25.3z"/>
		<path class="st2" d="M28.9,60c-0.1,0.6,0.2,0.8,0.7,0.7C29.8,59.9,29.4,59.9,28.9,60z"/>
		<path class="st2" d="M33.6,76.6C31.8,76.3,33.6,76.7,33.6,76.6L33.6,76.6z"/>
		<path class="st2" d="M32.8,20.1C32.7,20.2,33.1,22.2,32.8,20.1L32.8,20.1z"/>
		<path class="st2" d="M37.6,49C37.9,48.9,37.6,47.1,37.6,49L37.6,49z"/>
		<path class="st3" d="M40.8,36.8C40.8,38.7,44.3,36.3,40.8,36.8L40.8,36.8z"/>
		<path class="st2" d="M46.5,62.7C48.5,62.6,46.3,62.3,46.5,62.7L46.5,62.7z"/>
		<path class="st3" d="M63.3,16.5C63.5,18.7,63.9,16.6,63.3,16.5L63.3,16.5z"/>
		<path class="st3" d="M69,50C69,51.3,70.7,50,69,50L69,50z"/>
		<path class="st2" d="M72.1,35.3C72.2,37.5,73.8,35,72.1,35.3L72.1,35.3z"/>
		<path class="st2" d="M77.7,76.4C77.9,76.4,78.5,72.5,77.7,76.4L77.7,76.4z"/>
		<path class="st3" d="M79.8,40.2C78.6,40,79.8,42.3,79.8,40.2L79.8,40.2z"/>
		<path class="st3" d="M23.3,57.2c0.1-0.1,0.2-0.1,0.3-0.3c0-0.2,0-0.3,0-0.4c-0.1-0.1-0.3-0.3-0.4-0.4c-0.1,0.2-0.2,0.5-0.3,0.8
			C23,57,23.1,57.1,23.3,57.2z"/>
		<path class="st2" d="M91.9,52.8C87.6,52.8,91.9,54.3,91.9,52.8L91.9,52.8z"/>
		<path class="st3" d="M87.6,52.3C87.6,52.3,89.4,52.6,87.6,52.3L87.6,52.3z"/>
		<path class="st3" d="M82.5,69.9c0.7-0.2,1.5,1.8,1.7,0C83.8,69.9,82.6,68.8,82.5,69.9z"/>
		<path class="st2" d="M79.7,60.9C78.6,60.9,80.1,62.2,79.7,60.9L79.7,60.9z"/>
		<path class="st2" d="M74.2,75.8C76.3,76,74.7,73.2,74.2,75.8L74.2,75.8z"/>
		<path class="st3" d="M59.2,53C59.2,51.5,56.2,56.3,59.2,53L59.2,53z"/>
		<path class="st2" d="M58.3,60.9C60.1,60.2,58.4,58.9,58.3,60.9L58.3,60.9z"/>
		<path class="st2" d="M57.3,69.9C56.4,69.5,57.1,72.8,57.3,69.9L57.3,69.9z"/>
		<path class="st3" d="M51.3,81.2C51,75.2,49.4,81.2,51.3,81.2L51.3,81.2z"/>
		<path class="st2" d="M47.6,72.6C47,72.6,47,77.6,47.6,72.6L47.6,72.6z"/>
		<path class="st3" d="M45.4,76.3C44.4,76.5,45.3,78.4,45.4,76.3L45.4,76.3z"/>
		<path class="st2" d="M43,54C45.6,54.3,42.9,53.6,43,54L43,54z"/>
		<path class="st2" d="M28.7,60.1C27.4,60.1,29.4,64.2,28.7,60.1L28.7,60.1z"/>
		<path class="st3" d="M23.1,56.1c0.2,0.1,0.3,0.3,0.4,0.4C23.6,55.6,23.3,55.7,23.1,56.1z"/>
		<path class="st3" d="M23.3,57.2c-0.1-0.1-0.3-0.2-0.4-0.2C22.8,57.3,22.9,57.6,23.3,57.2z"/>
		<path class="st3" d="M18.4,55.2c1,0,2.8,0.9,4.4,1.7c0-0.3,0.2-0.6,0.3-0.8C21.2,54.4,18.7,52.1,18.4,55.2z"/>
		<path class="st3" d="M23.3,57.2c0.5,0.3,1,0.5,1.4,0.8c-0.1,0-0.1,0-0.2,0c0,0.6,0.3,0.9,0.7,1c0-0.4-0.1-0.6-0.3-0.8
			c1.4,0.8,1.9,1.1,0.1-0.4c-0.3-0.1-0.8-0.6-1.5-1.1c0,0.1,0,0.2,0,0.4C23.4,57,23.4,57.1,23.3,57.2z"/>
		<path class="st3" d="M85.6,75.1C87.1,77.7,86.5,71.9,85.6,75.1L85.6,75.1z"/>
		<path class="st2" d="M69.3,81.9C69,80.7,69.5,83.2,69.3,81.9L69.3,81.9z"/>
		<path class="st2" d="M68,50.3C68,48.6,66,49.9,68,50.3L68,50.3z"/>
		<path class="st3" d="M67.4,79.7C66.2,76.5,67.1,79.6,67.4,79.7L67.4,79.7z"/>
		<path class="st3" d="M34.7,91c0.1-0.1,0.5-0.9,0-1C34.2,89.6,34.2,91.4,34.7,91z"/>
		<path class="st2" d="M30.7,53C28.6,53,32.4,56.1,30.7,53L30.7,53z"/>
		<path class="st2" d="M21.9,68C21.9,67.4,19.4,66.6,21.9,68L21.9,68z"/>
		<path class="st3" d="M16.2,61.6C14.8,61.7,17.9,61.6,16.2,61.6L16.2,61.6z"/>
		<path class="st2" d="M45.4,20.9C48.4,16.7,41.3,21.8,45.4,20.9L45.4,20.9z"/>
		<path class="st2" d="M82.9,26.7C80,26.7,86.4,27,82.9,26.7L82.9,26.7z"/>
		<path class="st2" d="M80.3,21.8C78.2,22.1,80.3,23.8,80.3,21.8L80.3,21.8z"/>
		<path class="st2" d="M66.9,14.2C66.7,14.2,66.7,16.5,66.9,14.2L66.9,14.2z"/>
		<path class="st2" d="M60.6,20.1C60.5,17.2,60.2,25.1,60.6,20.1L60.6,20.1z"/>
		<path class="st2" d="M50.9,4.7C49.9,9,53.3,4.8,50.9,4.7L50.9,4.7z"/>
		<path class="st2" d="M40.6,43.1C40.3,45.5,42.7,43.3,40.6,43.1L40.6,43.1z"/>
		<path class="st3" d="M19.7,62.3C20.8,62.5,21,60.5,19.7,62.3L19.7,62.3z"/>
		<path class="st2" d="M96.3,55.4C94.4,54.7,96.3,55.5,96.3,55.4L96.3,55.4z"/>
		<path class="st2" d="M64.1,33.6C65.6,30.6,64.1,32.4,64.1,33.6L64.1,33.6z"/>
		<path class="st2" d="M39.2,9.8C37.5,9.5,42.8,14.6,39.2,9.8L39.2,9.8z"/>
		<path class="st2" d="M7.6,61.5C8.7,59.2,4.2,61,7.6,61.5L7.6,61.5z"/>
		<path class="st2" d="M10.5,38C5.6,38.3,14.9,38,10.5,38L10.5,38z"/>
		<path class="st2" d="M70.1,75.6C66.6,77.4,69,76.2,70.1,75.6L70.1,75.6z"/>
		<path class="st2" d="M24.1,85.4C25,82.7,22.8,85.7,24.1,85.4L24.1,85.4z"/>
		<path class="st2" d="M35.8,84.6C33.2,85,35.3,85.7,35.8,84.6L35.8,84.6z"/>
		<path class="st3" d="M70.1,83C69.9,82.5,70.1,83,70.1,83L70.1,83z"/>
		<path class="st2" d="M37.5,82.4C37.7,79.5,36.6,84.2,37.5,82.4L37.5,82.4z"/>
		<path class="st3" d="M25.1,77.4C25.1,75.7,23.1,78.4,25.1,77.4L25.1,77.4z"/>
		<path class="st3" d="M80.6,71.9C81.5,72.1,81.1,69.4,80.6,71.9L80.6,71.9z"/>
		<path class="st3" d="M54.7,66.8C52,68,54,69,54.7,66.8L54.7,66.8z"/>
		<path class="st3" d="M94.3,66.8C91.1,67.1,94.3,68,94.3,66.8L94.3,66.8z"/>
		<path class="st2" d="M45.6,64.4C41.9,63.6,45.5,68.5,45.6,64.4L45.6,64.4z"/>
		<path class="st3" d="M48.5,61.2C48.2,63,48.8,61.1,48.5,61.2L48.5,61.2z"/>
		<path class="st2" d="M50.7,61.2C48.7,61,50.7,62.7,50.7,61.2L50.7,61.2z"/>
		<path class="st2" d="M62.7,60.7c0.1,0.3-0.3,1,0.2,0.9C63.4,61.6,63.5,60.4,62.7,60.7z"/>
		<path class="st3" d="M54.2,61.2C53.9,59.8,51.9,64,54.2,61.2L54.2,61.2z"/>
		<path class="st2" d="M77.6,58.1C81.6,57,77.6,57.8,77.6,58.1L77.6,58.1z"/>
		<path class="st2" d="M41.2,57.8C39.7,57.6,40,59.6,41.2,57.8L41.2,57.8z"/>
		<path class="st3" d="M41,57C41,58.1,44.1,57.7,41,57L41,57z"/>
		<path class="st2" d="M74,57.2C75.2,57.1,74,55,74,57.2L74,57.2z"/>
		<path class="st3" d="M22.1,52C22.1,51.6,18.7,49.7,22.1,52L22.1,52z"/>
		<path class="st2" d="M14.8,50.8C15.2,49.3,12.4,51.6,14.8,50.8L14.8,50.8z"/>
		<path class="st3" d="M17.3,41.2c0.2,0,0.3,0,0.4,0c0.1,1.5,0.5,0.5,0.3-0.1C18.5,40.7,17.1,39.9,17.3,41.2z"/>
		<path class="st2" d="M30.4,29.6C29.2,26.1,29.7,32,30.4,29.6L30.4,29.6z"/>
		<path class="st3" d="M14.1,24.3C10.2,25.5,15.7,24.3,14.1,24.3L14.1,24.3z"/>
		<path class="st3" d="M85.2,22C85.2,21.1,84.7,17.5,85.2,22L85.2,22z"/>
		<path class="st2" d="M36.3,22.6C33.8,23.3,36.3,22.9,36.3,22.6L36.3,22.6z"/>
		<path class="st3" d="M82,22.4C84.7,22.7,80.3,20.4,82,22.4L82,22.4z"/>
		<path class="st3" d="M13.8,20.8C15.2,20.7,12.5,20.6,13.8,20.8L13.8,20.8z"/>
		<path class="st2" d="M49.5,17.1C45,17.9,52.8,17.1,49.5,17.1L49.5,17.1z"/>
		<path class="st2" d="M55.1,18C55.9,19.4,57.5,18,55.1,18L55.1,18z"/>
		<path class="st2" d="M77.6,85C77.2,85,79.2,85.3,77.6,85L77.6,85z"/>
		<path class="st2" d="M27.3,80.2C27.3,79.6,24.2,79.7,27.3,80.2L27.3,80.2z"/>
		<path class="st2" d="M21.4,75.4C19.3,75.4,21.4,76.4,21.4,75.4L21.4,75.4z"/>
		<path class="st2" d="M53.4,73.9C53.2,73.2,53.5,74.1,53.4,73.9L53.4,73.9z"/>
		<path class="st3" d="M56.1,72.1C56.4,70.6,53.7,72.3,56.1,72.1L56.1,72.1z"/>
		<path class="st2" d="M32.2,71.2C31.7,69.7,31.3,71.3,32.2,71.2L32.2,71.2z"/>
		<path class="st2" d="M18.2,69.5C18.1,69.2,18.4,70.6,18.2,69.5L18.2,69.5z"/>
		<path class="st2" d="M19,67.9C17.3,67.9,19.3,69.3,19,67.9L19,67.9z"/>
		<path class="st2" d="M38.3,60.9C38.8,59.5,34.5,60.9,38.3,60.9L38.3,60.9z"/>
		<path class="st2" d="M80.3,57.9C83.2,59.5,80,54.6,80.3,57.9L80.3,57.9z"/>
		<path class="st2" d="M61.3,56.1C60.5,55.3,59.9,55.1,61.3,56.1L61.3,56.1z"/>
		<path class="st3" d="M54.4,52.4C54.4,51.3,50.7,54.2,54.4,52.4L54.4,52.4z"/>
		<path class="st3" d="M75.4,49.7C75.9,48.1,73.1,49.7,75.4,49.7L75.4,49.7z"/>
		<path class="st2" d="M88.1,46.9C92.9,46.4,88.1,41,88.1,46.9L88.1,46.9z"/>
	</g>
</g>
<g id="Capa_2">
	<g>
		<path class="st4" d="M48.5,54.1c-2,0-3.5,1-3.5,3.3c0,1.8,1,3,3.4,3c2,0,3.4-1.2,3.4-3.1C51.8,55.3,50.6,54.1,48.5,54.1L48.5,54.1
			L48.5,54.1z M44.5,70.8c-0.5,0.6-0.9,1.2-0.9,1.9c0,1.5,1.9,1.9,4.4,1.9c2.1,0,5-0.1,5-2.1c0-1.2-1.4-1.2-3.1-1.3L44.5,70.8
			L44.5,70.8z M55.3,54.2c0.7,0.8,1.3,2,1.3,3.7c0,4-3.2,6.4-7.7,6.4c-1.2,0-2.2-0.1-2.9-0.3l-1.2,1.9l3.6,0.2
			c6.3,0.4,10,0.6,10,5.4c0,4.2-3.7,6.5-10,6.5c-6.6,0-9.1-1.7-9.1-4.5c0-1.6,0.7-2.5,2-3.7c-1.2-0.5-1.6-1.4-1.6-2.4
			c0-0.8,0.4-1.5,1.1-2.2c0.7-0.7,1.4-1.4,2.3-2.2c-1.8-0.9-3.1-2.8-3.1-5.4c0-4.2,2.8-7,8.3-7c1.6,0,2.5,0.1,3.3,0.4h7.1V54
			L55.3,54.2L55.3,54.2z"/>
		<path class="st4" d="M65,47.6c-2.1,0-3.3-1.2-3.3-3.3c0-2.1,1.2-3.2,3.3-3.2c2.1,0,3.3,1.1,3.3,3.2C68.3,46.4,67.1,47.6,65,47.6
			L65,47.6L65,47.6z M60.3,69.5v-2.9l1.9-0.3c0.5-0.1,0.6-0.2,0.6-0.7V54.9c0-0.4-0.1-0.7-0.5-0.8l-2-0.7l0.4-2.9h7.5v15.1
			c0,0.6,0,0.7,0.6,0.7l1.9,0.3v2.9H60.3L60.3,69.5z"/>
		<path class="st4" d="M85,68c-1.6,0.8-3.8,1.5-5.9,1.5c-4.3,0-6-1.7-6-5.8v-9.5c0-0.2,0-0.4-0.3-0.4h-2.5v-3.2
			c3.2-0.4,4.5-2,4.9-5.9h3.4v5.2c0,0.3,0,0.4,0.3,0.4H84v3.6h-5.4v8.7c0,2.1,0.5,3,2.5,3c1,0,2.1-0.3,2.9-0.6L85,68"/>
	</g>
	<path class="st19" d="M49.2,40.2L32.3,23.4c-1-1-2.5-1-3.5,0l-3.5,3.5l4.4,4.4c1-0.3,2.2-0.1,3,0.7c0.8,0.8,1.1,2,0.7,3.1l4.3,4.3
		c1-0.4,2.2-0.1,3.1,0.7c1.2,1.2,1.2,3,0,4.2c-1.2,1.2-3,1.2-4.2,0c-0.9-0.9-1.1-2.1-0.6-3.2l-4-4l0,10.5c0.3,0.1,0.5,0.3,0.8,0.6
		c1.2,1.2,1.2,3,0,4.2c-1.2,1.2-3,1.2-4.2,0c-1.2-1.2-1.2-3,0-4.2c0.3-0.3,0.6-0.5,1-0.6V36.8c-0.4-0.1-0.7-0.4-1-0.6
		C27.7,35.3,27.5,34,28,33l-4.4-4.4L12,40.1c-1,1-1,2.5,0,3.5l16.9,16.9c1,1,2.5,1,3.5,0l16.8-16.8C50.2,42.8,50.2,41.2,49.2,40.2"
		/>
</g>
</svg>
